<svg width="512" height="512" viewBox="0 0 512.00001 512" xml:space="preserve" xmlns:xlink="http://www.w3.org/1999/xlink" xmlns="http://www.w3.org/2000/svg">
    <linearGradient id="linearGradient1032">
        <stop style="stop-color:#5f5f63;stop-opacity:1;" offset="0" id="stop1028" />
        <stop style="stop-color:#abacb0;stop-opacity:1;" offset="0.51472127" id="stop1036" />
        <stop style="stop-color:#eaedee;stop-opacity:1;" offset="1" id="stop1030" />
    </linearGradient>
    <linearGradient xlink:href="#linearGradient1032" id="linearGradient1034" x1="157.64833" y1="448.14401" x2="157.17197" y2="232.00414" gradientUnits="userSpaceOnUse" gradientTransform="matrix(2.2244997,0,0,2.244256,-80.972324,-517.99416)" />
    <filter style="color-interpolation-filters:sRGB" id="filter1061" x="-0.024355602" y="-0.14893223" width="1.0487112" height="1.2978645">
        <feGaussianBlur stdDeviation="2.2272517" id="feGaussianBlur1063" />
    </filter>
    <rect x="132.86052" y="1508.2476" width="172.15729" height="87.949921" id="rect1129-3" />
    <rect x="132.86052" y="1508.2476" width="299.40396" height="86.078651" id="rect1129-2" />
    <rect x="132.86052" y="1508.2476" width="230.16679" height="86.078651" id="rect1129-5" />
    <path d="M 62.976917,453.56536 C 56.045066,453.54746 43.814629,443.12225 42.872374,435.0949 l -1.126731,-12.27696 21.170058,23.55899 166.992869,0.88145 31.31037,-29.54782 -1.95347,14.17102 c -1.70412,11.25711 -14.27356,19.88826 -29.0429,21.7205 z" transform="matrix(2.2244998,0,0,2.2442559,-80.972324,-517.99415)" fill="#1D1E1F" filter="url(#filter1061)" />
    <path d="m 82.00072,490.43821 345.78865,-0.10053 c 55.44173,-0.024 72.96399,-42.1978 73.25167,-98.66986 L 500.90808,84.240659 C 501.13816,47.090258 464.6775,1.3437033 423.76877,0 L 86.279551,0.30845055 C 46.01864,0.28825215 12.547604,44.408891 12.471835,78.859942 L 11.997796,417.46632 c -0.393567,54.82605 26.039064,72.92173 70.002993,72.97189 z" fill="url(#linearGradient1034)" />
    <path d="M 157.20729,404.04791 C 63.552855,398.31966 25.399845,329.34245 24.529387,256.24538 24.899975,217.98143 47.79732,173.27118 80.764399,147.46366 116.76684,120.87703 159.07661,113.92254 198.63242,120.02159 241.26725,87.436297 275.32136,71.73425 329.22466,71.615933 c 30.42539,-0.337423 82.38357,18.826775 109.97178,46.528607 39.0707,37.20691 49.04131,76.31848 49.07038,138.53372 -0.0779,69.14527 -57.63051,138.7052 -149.32864,152.33657 -25.07575,3.72271 -63.9269,0.93731 -104.99236,-8.79047 -24.55902,6.96196 -51.23537,4.80894 -76.73853,3.82355 z m 257.79295,-58.54088 c 30.91595,-28.75635 44.87962,-59.06764 44.30834,-106.67085 -1.44948,-59.28734 -24.8624,-87.52335 -51.90431,-110.21934 -56.26875,-41.29298 -124.94113,-40.655584 -176.50019,2.01198 l 30.35019,19.00566 c 44.27936,-27.11744 100.73304,-19.53362 134.73165,15.08506 19.66085,21.64396 28.41101,41.66874 29.70371,74.11682 -0.27966,31.6095 -12.47302,56.41893 -31.04326,75.36597 -39.40174,38.50504 -98.1714,36.21079 -129.37249,16.2978 -39.65911,-32.32582 -46.3593,-43.10961 -89.39129,-84.63799 -19.35277,-19.6047 -43.58602,1.60218 -24.14941,21.96744 0,0 43.83877,50.7958 80.3362,81.15018 64.1921,47.9316 127.15254,46.69613 182.93086,-3.47273 z M 211.0005,370.24019 187.64821,345.24215 c -16.80889,3.1639 -36.30412,-2.45633 -52.08267,-9.25328 -46.129756,-23.04935 -60.290751,-78.65179 -31.67835,-119.95079 24.13049,-27.14375 49.80675,-35.03407 74.39448,-32.67726 32.63194,6.61609 103.8559,73.05744 103.8559,73.05744 24.38497,21.39263 44.67404,-1.34841 23.16905,-23.15845 0,0 -71.60027,-74.17989 -112.88458,-82.88914 -24.52067,-4.96298 -50.46636,-1.6979 -72.48148,9.12121 -45.781518,24.91984 -63.797401,65.21193 -64.683601,103.73672 0.588757,45.16574 13.135592,70.00983 41.371146,88.71077 42.308695,27.63989 83.666685,31.63427 114.372395,18.30082 z" fill="#000000" />
    <path d="m 71.865286,42.383917 7.606112,87.710383 17.555607,-1.54957 -3.175185,-36.61478 3.558074,-0.314108 c 4.032506,-0.355851 7.005926,-0.277904 8.922846,0.236161 1.91349,0.474236 3.77713,1.536575 5.59321,3.184886 1.81263,1.60837 5.27161,5.622351 10.36997,12.045041 l 14.34326,17.96632 20.9927,-1.85295 -12.09768,-16.17511 c -4.78211,-6.45056 -8.53562,-10.903114 -11.25802,-13.355545 -2.68288,-2.456022 -6.01762,-4.633423 -10.00661,-6.532066 7.53328,-1.790264 13.0311,-4.988443 16.49583,-9.594486 3.46129,-4.646103 4.90775,-10.259997 4.33703,-16.840962 -0.44962,-5.185108 -2.11539,-9.68008 -4.99494,-13.485174 -2.87953,-3.805205 -6.50173,-6.29765 -10.86678,-7.479746 -4.32899,-1.225457 -11.13769,-1.429567 -20.42825,-0.609517 z M 90.707774,55.674082 104.4064,54.464948 c 7.11617,-0.628103 11.39446,-0.906141 12.83495,-0.832578 2.88815,0.225334 5.18255,1.191697 6.88349,2.890304 1.73702,1.655207 2.73459,3.957321 2.99054,6.9089 0.2283,2.632402 -0.17466,4.877107 -1.20843,6.736901 -1.03387,1.859493 -2.56948,3.243577 -4.60255,4.146393 -2.03304,0.902896 -7.25879,1.725834 -15.67959,2.469042 l -12.987017,1.146323 z m 90.651936,5.175954 -17.22638,59.507254 12.21493,-1.0781 3.57747,-13.48591 22.80023,-2.01249 6.11117,12.63074 12.52801,-1.10582 -27.82968,-55.530381 z m 41.20263,-3.636819 4.99033,57.546303 11.51752,-1.01656 -2.12052,-24.453018 23.81073,-2.101677 -0.8442,-9.735156 -23.81078,2.101745 -1.18136,-13.623063 27.58587,-2.434903 -0.84422,-9.735134 z m 46.37618,-4.093363 0.84419,9.735065 2.99286,10.533123 8.05549,-0.711018 0.86032,-10.873239 -0.84416,-9.735155 z m -80.4619,20.630165 9.71167,20.661338 -15.56304,1.373662 z M 306.37878,64.84802 c -5.93985,0.524215 -10.21669,2.141556 -12.83075,4.850982 -2.61385,2.709469 -3.76489,5.866504 -3.45172,9.477715 0.34718,4.003934 2.25334,6.988641 5.71682,8.950724 2.50107,1.41406 8.24634,2.713013 17.23546,3.897125 1.93198,0.277593 3.19374,0.655701 3.78385,1.131017 0.56603,0.503566 0.88691,1.172355 0.95952,2.00964 0.10667,1.229918 -0.28984,2.253273 -1.18584,3.070859 -1.33584,1.17267 -3.41601,1.885718 -6.2433,2.135278 -2.56795,0.22669 -4.61297,-0.1488 -6.13498,-1.122285 -1.52421,-0.999457 -2.61518,-2.547949 -3.26811,-4.65259 l -10.82331,2.655307 c 1.35427,3.862208 3.76422,6.798878 7.23221,8.813398 3.49395,2.01202 8.05631,2.76851 13.68499,2.27168 6.19925,-0.54722 10.76011,-2.33345 13.68636,-5.36042 2.92622,-3.027152 4.22353,-6.448474 3.89228,-10.269093 -0.30387,-3.50658 -1.68168,-6.142748 -4.13449,-7.903995 -2.47649,-1.732658 -6.69205,-3.009054 -12.64401,-3.828611 -5.92588,-0.821877 -9.41363,-1.555986 -10.4628,-2.201708 -0.77393,-0.485252 -1.19411,-1.118336 -1.26222,-1.903306 -0.0797,-0.916045 0.27093,-1.700856 1.05107,-2.349914 1.17475,-0.921111 3.20286,-1.508836 6.08202,-1.76289 2.28259,-0.201547 4.07014,0.07587 5.36414,0.832301 1.3199,0.753626 2.27148,1.922856 2.85319,3.506293 l 10.14453,-2.834203 c -1.35299,-3.545813 -3.48654,-6.125025 -6.39698,-7.740216 -2.9107,-1.615325 -7.19343,-2.172148 -12.84793,-1.673048 z" fill="#FFFFFF" />
    <path d="m 228.29221,368.05616 c -10.16502,-0.89726 -18.65824,1.75768 -25.48191,7.96597 -6.8209,6.17521 -10.75976,15.35703 -11.81653,27.54343 -0.99902,11.52052 1.31404,20.88404 6.94106,28.09099 5.63004,7.17346 13.2637,11.18353 22.90049,12.03414 7.78871,0.6875 14.37715,-0.67589 19.76153,-4.09252 5.42033,-3.44705 9.56406,-9.07024 12.43519,-16.869 l -13.81256,-5.79983 c -1.68601,5.25286 -4.03914,9.00626 -7.06085,11.25579 -3.02185,2.24963 -6.48177,3.20246 -10.37624,2.85862 -5.2805,-0.46608 -9.39945,-2.81014 -12.35901,-7.03045 -2.95957,-4.22025 -4.03907,-10.95867 -3.23641,-20.21496 0.75651,-8.72355 2.97245,-14.88674 6.64356,-18.48827 3.70419,-3.59846 8.24395,-5.16054 13.62346,-4.68577 3.89436,0.34376 7.1014,1.73416 9.61705,4.17047 2.54865,2.43936 4.08544,5.59457 4.61443,9.46608 l 14.80976,-2.21364 c -1.1419,-6.00575 -3.22745,-10.71909 -6.25631,-14.14033 -5.08532,-5.78346 -12.06893,-9.06717 -20.94671,-9.85072 z m 102.42968,28.05832 c -4.3066,-0.38014 -8.16749,-0.0133 -11.58576,1.10283 -2.5687,0.82512 -4.99476,2.22576 -7.27525,4.20134 -2.25635,1.97766 -4.10271,4.27228 -5.54148,6.88471 -1.93185,3.54716 -3.13361,8.0412 -3.60511,13.4782 -0.73667,8.4956 1.00627,15.3741 5.22895,20.63849 4.22447,5.24015 10.27043,8.20786 18.13776,8.90232 7.77109,0.68584 14.18769,-1.19331 19.25213,-5.63842 5.06647,-4.46887 7.97339,-11.01075 8.72059,-19.62744 0.75357,-8.68968 -1.0031,-15.68143 -5.27151,-20.97438 -4.24447,-5.29082 -10.2651,-8.27989 -18.06032,-8.96787 z m 33.91599,3.90862 -2.46923,28.47408 c -0.51784,5.97117 -0.55867,10.5143 -0.12587,13.63436 0.30229,2.10566 1.12774,4.17361 2.47929,6.20076 1.35371,2.00273 3.27915,3.7138 5.77433,5.13253 2.52153,1.39672 6.30888,2.31736 11.36134,2.76331 4.18628,0.36941 7.6241,0.1336 10.31523,-0.70499 2.69297,-0.86304 4.88908,-2.13656 6.58663,-3.82126 1.7218,-1.68238 2.98489,-3.81929 3.79169,-6.41402 0.80686,-2.59489 1.48937,-7.09623 2.04502,-13.50436 l 2.43129,-28.03656 -10.68403,-0.94304 -2.56067,29.52896 c -0.3663,4.22343 -0.78489,7.23066 -1.25539,9.02347 -0.47065,1.7928 -1.52891,3.25249 -3.17825,4.37868 -1.64707,1.102 -3.98804,1.52019 -7.01949,1.25256 -2.98329,-0.2632 -5.28308,-1.12638 -6.90173,-2.58993 -1.59237,-1.48595 -2.5239,-3.34211 -2.79152,-5.56695 -0.14694,-1.38269 -0.0213,-4.36843 0.3785,-8.95594 l 2.50689,-28.90862 z m 53.41149,4.71439 -4.62879,53.37623 20.10278,1.77438 c 3.94579,0.34832 7.12906,0.252 9.5521,-0.29235 3.24023,-0.74126 5.86501,-1.94187 7.87541,-3.59865 2.66241,-2.18646 4.82506,-5.16346 6.48509,-8.93035 1.3584,-3.08414 2.22891,-6.82348 2.60984,-11.21685 0.43363,-5.00015 0.2208,-9.25067 -0.63909,-12.75065 -0.85814,-3.52441 -2.29198,-6.55938 -4.30132,-9.10944 -2.00918,-2.54977 -4.5282,-4.42231 -7.55181,-5.61866 -2.25086,-0.88344 -5.57492,-1.52163 -9.97768,-1.91022 z m -155.72475,-13.30428 -4.59078,52.93882 37.24432,3.28742 0.77977,-8.99293 -26.56008,-2.34444 3.81089,-43.94575 z m 67.70834,13.90273 c 4.40289,0.38867 7.79434,2.20262 10.17987,5.44597 2.40958,3.24558 3.35003,7.92868 2.81955,14.04537 -0.53672,6.18964 -2.31083,10.71552 -5.323,13.58033 -2.98588,2.8427 -6.60669,4.07622 -10.86523,3.70033 -4.25847,-0.37584 -7.63698,-2.23894 -10.13438,-5.59012 -2.49534,-3.37535 -3.48302,-8.08611 -2.95886,-14.13015 0.53256,-6.14095 2.27825,-10.61054 5.23607,-13.40686 2.95979,-2.82044 6.64311,-4.0334 11.04598,-3.64487 z m 97.91721,9.37646 4.79988,0.4236 c 4.35486,0.38432 7.26199,0.81187 8.72421,1.28323 1.95888,0.61331 3.53577,1.59502 4.72772,2.94755 1.19184,1.35262 2.05107,3.1642 2.58142,5.43668 0.53013,2.2726 0.61784,5.47175 0.26027,9.59809 -0.35784,4.12641 -1.00355,7.36106 -1.93364,9.7004 -0.92811,2.31494 -2.01269,3.94318 -3.25798,4.88492 -1.22136,0.94405 -2.7175,1.55752 -4.48769,1.84141 -1.35267,0.22321 -3.5211,0.20214 -6.50439,-0.0605 l -7.97523,-0.70395 z" fill="#FFFFFF" />
    <path d="m 124.80584,202.73882 v 80.84974 h 16.17917 V 253.0903 h 10.55101 c 7.32481,0 12.91972,-0.38567 16.78253,-1.15797 2.84254,-0.62497 5.63037,-1.89354 8.36357,-3.80522 2.76957,-1.94869 5.0461,-4.61527 6.83177,-7.99763 1.78568,-3.38239 2.67948,-7.55428 2.67948,-12.51774 0,-6.43395 -1.54985,-11.67297 -4.64738,-15.71721 -3.0976,-4.0809 -6.94324,-6.72811 -11.53492,-7.94127 -2.98829,-0.80889 -9.3999,-1.21444 -19.23928,-1.21444 z m 16.17917,13.67892 h 7.81901 c 5.83068,0 9.7117,0.18134 11.64314,0.54948 2.62385,0.47768 4.79102,1.67509 6.50382,3.58679 1.71275,1.91189 2.5681,4.33836 2.5681,7.27958 0,2.38982 -0.61757,4.48547 -1.85633,6.28701 -1.20258,1.80145 -2.8811,3.12495 -5.0312,3.97068 -2.15008,0.8456 -6.41387,1.26722 -12.79122,1.26722 h -8.85532 z m 136.37652,8.95394 c -4.75545,0 -8.95488,0.77493 -12.59442,2.3295 -2.73636,1.15248 -5.2585,2.92212 -7.56973,5.3075 -2.2847,2.38535 -4.09324,5.07843 -5.42153,8.08027 -1.77991,4.0741 -2.66973,9.11467 -2.66973,15.1184 0,9.38073 2.5638,16.74979 7.69112,22.11013 5.12722,5.33361 12.03448,8.00093 20.72165,8.00093 8.58088,0 15.43695,-2.68017 20.56416,-8.04061 5.12719,-5.38724 7.69104,-12.8368 7.69104,-22.35163 0,-9.59518 -2.59265,-17.08687 -7.77301,-22.47412 -5.15385,-5.38727 -12.03219,-8.08037 -20.63955,-8.08037 z m 111.85669,0 c -4.75527,0 -8.95477,0.77493 -12.59433,2.3295 -2.7363,1.15248 -5.25847,2.92212 -7.56973,5.3075 -2.28473,2.38535 -4.09305,5.07843 -5.42137,8.08027 -1.78004,4.0741 -2.66985,9.11467 -2.66985,15.1184 0,9.38073 2.56384,16.74979 7.69114,22.11013 5.12729,5.33361 12.03441,8.00093 20.72155,8.00093 8.58093,0 15.4369,-2.68017 20.5643,-8.04061 5.12727,-5.38724 7.69106,-12.8368 7.69106,-22.35163 0,-9.59518 -2.59257,-17.08687 -7.77306,-22.47412 -5.15394,-5.38727 -12.0323,-8.08037 -20.63971,-8.08037 z m -196.61607,1.00274 v 58.93804 h 11.79401 V 259.5427 h 23.11262 v 25.76976 h 11.79414 v -58.93804 h -11.79414 v 23.19871 h -23.11262 v -23.19871 z m 118.19014,0 v 9.97298 h 17.33685 v 48.96506 H 339.9232 V 236.3474 h 17.29431 v -9.97298 z m -33.31276,9.16882 c 4.86156,0 8.75365,1.65978 11.67603,4.98328 2.94889,3.3235 4.42436,8.36418 4.42436,15.11845 0,6.83448 -1.51395,11.9656 -4.54249,15.39627 -3.00198,3.40388 -6.85565,5.10557 -11.5579,5.10557 -4.70225,0 -8.58157,-1.7146 -11.63668,-5.14517 -3.05513,-3.45763 -4.58186,-8.52419 -4.58186,-15.19785 0,-6.78095 1.4883,-11.84432 4.46378,-15.19449 2.97548,-3.37712 6.89312,-5.06606 11.75476,-5.06606 z m 111.85674,0 c 4.86161,0 8.75379,1.65978 11.67609,4.98328 2.94883,3.3235 4.42438,8.36418 4.42438,15.11845 0,6.83448 -1.51389,11.9656 -4.54249,15.39627 -3.00198,3.40388 -6.85578,5.10557 -11.55798,5.10557 -4.70215,0 -8.58154,-1.7146 -11.63659,-5.14517 -3.05516,-3.45763 -4.58185,-8.52419 -4.58185,-15.19785 0,-6.78095 1.48835,-11.84432 4.46379,-15.19449 2.97535,-3.37712 6.89296,-5.06606 11.75465,-5.06606 z" fill="#FFFFFF" />
</svg>