<svg width="255" height="255" viewBox="0 0 255 255" xml:space="preserve" xmlns:xlink="http://www.w3.org/1999/xlink" xmlns="http://www.w3.org/2000/svg">
    <linearGradient id="linearGradient1032">
        <stop style="stop-color:#5f5f63;stop-opacity:1;" offset="0" id="stop1028" />
        <stop style="stop-color:#abacb0;stop-opacity:1;" offset="0.51472127" id="stop1036" />
        <stop style="stop-color:#eaedee;stop-opacity:1;" offset="1" id="stop1030" />
    </linearGradient>
    <linearGradient xlink:href="#linearGradient1032" id="linearGradient1034" x1="157.64833" y1="448.14401" x2="157.17197" y2="232.00414" gradientUnits="userSpaceOnUse" />
    <filter style="color-interpolation-filters:sRGB" id="filter1061" x="-0.024355602" y="-0.14893223" width="1.0487112" height="1.2978645">
        <feGaussianBlur stdDeviation="2.2272517" id="feGaussianBlur1063" />
    </filter>
    <rect x="132.86052" y="1508.2476" width="172.15729" height="87.949921" id="rect1129-3" />
    <rect x="132.86052" y="1508.2476" width="299.40396" height="86.078651" id="rect1129-2" />
    <rect x="132.86052" y="1508.2476" width="230.16679" height="86.078651" id="rect1129-5" />
    <g transform="matrix(1.1122226,0,0,1.1219593,-40.485168,-258.95814)">
        <path d="M 62.976917,453.56536 C 56.045066,453.54746 43.814629,443.12225 42.872374,435.0949 l -1.126731,-12.27696 21.170058,23.55899 166.992869,0.88145 31.31037,-29.54782 -1.95347,14.17102 c -1.70412,11.25711 -14.27356,19.88826 -29.0429,21.7205 z" fill="#1D1E1F" filter="url(#filter1061)" />
        <path d="m 73.262784,449.33928 155.445586,-0.0447 c 24.92322,-0.0102 32.80018,-18.80259 32.92949,-43.96551 l -0.0598,-136.98401 c 0.10345,-16.55364 -16.28706,-36.93748 -34.67711,-37.53621 l -151.714665,0.13744 c -18.09886,-0.009 -33.145404,19.65036 -33.179465,35.00113 l -0.213099,150.8769 c -0.176924,24.4295 11.705581,32.4926 31.469093,32.51496 z" fill="url(#linearGradient1034)" />
        <path d="M 107.07109,410.84532 C 64.969744,408.29292 47.81847,377.5579 47.427164,344.98718 47.593757,327.93745 57.887011,308.01537 72.707009,296.516 88.89152,284.66948 107.91142,281.57068 125.69331,284.28831 c 19.16603,-14.51942 34.4747,-21.51597 58.70634,-21.56869 13.67741,-0.15035 37.03466,8.38887 49.43664,20.73231 17.56381,16.57873 22.04597,34.00614 22.05905,61.72813 -0.035,30.80988 -25.90717,61.80454 -67.12909,67.87843 -11.27253,1.65876 -28.73765,0.41765 -47.19818,-3.9169 -11.04024,3.10214 -23.03231,2.14282 -34.49698,1.70373 z m 115.88805,-26.08477 c 13.89794,-12.81329 20.17514,-26.31946 19.91835,-47.5306 -0.6516,-26.41737 -11.17663,-38.99883 -23.33303,-49.11175 -25.29503,-18.39941 -56.16596,-18.1154 -79.34377,0.8965 l 13.64359,8.46858 c 19.90532,-12.08304 45.28347,-8.70383 60.56716,6.72163 8.83835,9.64416 12.77188,18.56684 13.35303,33.02512 -0.12575,14.08462 -5.60715,25.13927 -13.95521,33.58172 -17.71262,17.15715 -44.13188,16.13486 -58.15798,7.26201 -17.82834,-14.40382 -20.84034,-19.20887 -40.18491,-37.71317 -8.69983,-8.7355 -19.593625,0.71391 -10.85611,9.7883 0,0 19.70725,22.63369 36.11428,36.15907 28.85686,21.35744 57.16003,20.80694 82.2346,-1.54741 z m -91.70589,11.02066 -10.49777,-11.13867 c -7.55626,1.40978 -16.32013,-1.09449 -23.413209,-4.12311 -20.737135,-10.27037 -27.103057,-35.04581 -14.24066,-53.4479 10.847603,-12.09477 22.390089,-15.61055 33.443239,-14.5604 14.66934,2.94801 46.6873,32.55308 46.6873,32.55308 10.962,9.53219 20.08274,-0.60083 10.41539,-10.31899 0,0 -32.18712,-33.05322 -50.74604,-36.93391 -11.023,-2.21141 -22.68661,-0.75655 -32.58327,4.06425 -20.580589,11.10383 -28.679438,29.05726 -29.077818,46.22321 0.264671,20.12505 5.904966,31.19511 18.597955,39.52794 19.019424,12.31582 37.611463,14.09565 51.414883,8.1545 z" fill="#000000" />
        <path d="m 68.706509,249.69436 3.419243,39.08217 7.891935,-0.69046 -1.42737,-16.31489 1.599495,-0.13996 c 1.812771,-0.15856 3.149441,-0.12383 4.011171,0.10523 0.860186,0.21131 1.697965,0.68467 2.514369,1.41913 0.814845,0.71666 2.369791,2.50522 4.661703,5.36705 l 6.447864,8.00547 9.437041,-0.82564 -5.43838,-7.20734 c -2.149749,-2.87425 -3.837101,-4.85823 -5.060926,-5.95099 -1.206056,-1.09436 -2.705156,-2.06457 -4.498361,-2.91057 3.386504,-0.79771 5.857989,-2.22276 7.415523,-4.27513 1.555984,-2.07022 2.206224,-4.57167 1.949664,-7.50403 -0.20212,-2.31039 -0.95095,-4.31327 -2.245423,-6.00875 -1.29446,-1.69553 -2.92278,-2.80612 -4.885042,-3.33284 -1.94605,-0.54604 -5.006833,-0.63699 -9.183303,-0.27159 z m 8.470438,5.92186 6.158068,-0.53877 c 3.198999,-0.27987 5.122258,-0.40376 5.769818,-0.37098 1.298337,0.10041 2.329756,0.531 3.094398,1.28787 0.780857,0.73753 1.229303,1.76331 1.344366,3.07848 0.102623,1.17295 -0.07852,2.17315 -0.54324,3.00184 -0.464763,0.82856 -1.155079,1.44528 -2.069025,1.84756 -0.913931,0.40231 -3.263114,0.769 -7.048592,1.10016 l -5.838176,0.51078 z m 40.751603,2.30631 -7.74393,26.51536 5.49109,-0.48038 1.60821,-6.00908 10.2496,-0.89673 2.74721,5.62803 5.63183,-0.49273 -12.51053,-24.74334 z m 18.5222,-1.6205 2.24335,25.6416 5.17758,-0.45297 -0.95326,-10.89582 10.70386,-0.93647 -0.3795,-4.33781 -10.70388,0.9365 -0.53107,-6.07019 12.40092,-1.08495 -0.3795,-4.3378 z m 20.84789,-1.82393 0.3795,4.33777 1.34543,4.69337 3.62125,-0.31682 0.38675,-4.84492 -0.37949,-4.33781 z m -36.17076,9.19243 4.36578,9.20632 -6.9962,0.61208 z m 53.00165,-3.96657 c -2.67021,0.23358 -4.59281,0.95424 -5.76793,2.16151 -1.17503,1.20729 -1.69247,2.61401 -1.55169,4.2231 0.15608,1.78408 1.01297,3.11401 2.56994,3.98828 1.12433,0.63008 3.70705,1.20887 7.74803,1.73649 0.8685,0.12369 1.43571,0.29217 1.70097,0.50396 0.25446,0.22438 0.3987,0.52238 0.43135,0.89546 0.0479,0.54803 -0.1303,1.00402 -0.53309,1.36832 -0.6005,0.52252 -1.53561,0.84024 -2.80661,0.95144 -1.15438,0.10102 -2.07371,-0.0663 -2.7579,-0.50007 -0.6852,-0.44534 -1.17564,-1.13532 -1.46917,-2.07311 l -4.86549,1.18316 c 0.60877,1.72093 1.69217,3.02946 3.25117,3.92709 1.57065,0.89652 3.62161,1.2336 6.15195,1.01222 2.78679,-0.24384 4.83709,-1.03974 6.15254,-2.38851 1.31545,-1.34884 1.89867,-2.87332 1.74974,-4.57572 -0.13662,-1.56247 -0.75599,-2.7371 -1.85862,-3.52188 -1.11326,-0.77204 -3.00833,-1.34078 -5.68396,-1.70596 -2.66393,-0.36621 -4.23182,-0.69332 -4.70345,-0.98104 -0.34792,-0.21622 -0.53681,-0.49831 -0.56743,-0.84808 -0.0357,-0.40817 0.12178,-0.75787 0.4725,-1.04708 0.52808,-0.41043 1.43983,-0.67231 2.73411,-0.78551 1.02609,-0.0898 1.82969,0.0338 2.41141,0.37086 0.59331,0.3358 1.02111,0.85679 1.28261,1.56234 l 4.56037,-1.26287 c -0.60823,-1.57995 -1.56733,-2.7292 -2.87573,-3.4489 -1.30845,-0.71976 -3.2337,-0.96787 -5.77562,-0.74548 z" fill="#FFFFFF" />
        <path d="m 139.02655,394.80804 c -4.56957,-0.39979 -8.38761,0.7832 -11.45512,3.54951 -3.06626,2.75154 -4.83693,6.84281 -5.31199,12.27285 -0.4491,5.13333 0.59071,9.30555 3.12028,12.51684 2.53092,3.19634 5.96255,4.98317 10.29467,5.36217 3.50133,0.30634 6.46309,-0.30114 8.88358,-1.82353 2.43665,-1.53595 4.29942,-4.04152 5.59011,-7.51652 l -6.20929,-2.58432 c -0.75793,2.34061 -1.81575,4.01303 -3.17413,5.01539 -1.35844,1.0024 -2.91381,1.42695 -4.66453,1.27376 -2.37379,-0.20767 -4.22542,-1.25218 -5.55586,-3.13265 -1.33044,-1.88047 -1.81572,-4.88298 -1.45489,-9.00742 0.34008,-3.88705 1.33623,-6.63327 2.98654,-8.23803 1.66518,-1.60343 3.70598,-2.29945 6.12428,-2.08789 1.75067,0.15318 3.19236,0.77269 4.32324,1.85826 1.14572,1.08694 1.83657,2.49285 2.07437,4.21793 l 6.65757,-0.98638 c -0.51333,-2.67602 -1.45087,-4.77622 -2.81246,-6.30066 -2.28605,-2.57701 -5.42546,-4.04017 -9.41637,-4.38931 z m 46.04617,12.50229 c -1.936,-0.16938 -3.6716,-0.006 -5.20828,0.4914 -1.15471,0.36764 -2.24533,0.99175 -3.27048,1.87204 -1.01436,0.88121 -1.84435,1.90364 -2.49113,3.06769 -0.86844,1.58057 -1.40867,3.58302 -1.62063,6.00567 -0.33117,3.78546 0.45237,6.85038 2.3506,9.1961 1.89909,2.33494 4.61697,3.6573 8.15364,3.96672 3.49343,0.30562 6.37794,-0.53169 8.6546,-2.51237 2.27758,-1.99123 3.58435,-4.90619 3.92025,-8.74563 0.33876,-3.87195 -0.45093,-6.98737 -2.36976,-9.3458 -1.90803,-2.3575 -4.61456,-3.68936 -8.11882,-3.99592 z m 15.24655,1.74159 -1.11,12.68755 c -0.23279,2.66064 -0.25114,4.68499 -0.0565,6.07523 0.13589,0.93824 0.50697,1.85968 1.11453,2.76293 0.60854,0.8924 1.4741,1.65481 2.59581,2.28697 1.13349,0.62235 2.83607,1.03257 5.10734,1.23128 1.88192,0.16464 3.42735,0.0596 4.63709,-0.31414 1.21062,-0.38455 2.19785,-0.95201 2.96099,-1.70268 0.77398,-0.74965 1.3418,-1.70181 1.7045,-2.85798 0.36273,-1.15621 0.66952,-3.16194 0.91932,-6.01727 l 1.09296,-12.49259 -4.8029,-0.4202 -1.15112,13.15756 c -0.16464,1.88189 -0.35286,3.22185 -0.56438,4.02068 -0.21157,0.79885 -0.68729,1.44925 -1.42872,1.95108 -0.74043,0.49101 -1.79277,0.67735 -3.15554,0.55813 -1.34109,-0.11726 -2.37494,-0.50192 -3.10259,-1.15406 -0.71586,-0.66209 -1.13461,-1.48917 -1.2549,-2.48052 -0.066,-0.6161 -0.009,-1.94649 0.17014,-3.99058 l 1.12696,-12.88118 z m 24.01055,2.10065 -2.08081,23.78351 9.03699,0.79062 c 1.77378,0.15521 3.2048,0.11229 4.29405,-0.13028 1.45658,-0.3303 2.63655,-0.86527 3.5403,-1.60351 1.19686,-0.97423 2.16905,-2.30073 2.91532,-3.97919 0.61064,-1.37426 1.00197,-3.04042 1.17323,-4.99803 0.19494,-2.22797 0.0993,-4.12194 -0.2873,-5.68147 -0.38577,-1.57041 -1.03034,-2.92274 -1.93361,-4.05899 -0.90322,-1.13613 -2.0356,-1.97051 -3.39485,-2.50357 -1.01184,-0.39366 -2.50614,-0.67802 -4.48536,-0.85117 z m -70.00436,-5.92813 -2.06374,23.58858 16.74278,1.46482 0.35054,-4.00709 -11.93981,-1.04463 1.71316,-19.58146 z m 30.43756,6.19481 c 1.97925,0.17318 3.50386,0.98146 4.57624,2.4266 1.0832,1.44618 1.50596,3.5329 1.26751,6.2584 -0.24129,2.75798 -1.03882,4.77462 -2.3929,6.05114 -1.34228,1.26663 -2.96996,1.81629 -4.88437,1.64879 -1.91434,-0.16748 -3.43313,-0.99762 -4.55578,-2.49086 -1.12175,-1.50398 -1.56575,-3.60301 -1.33013,-6.29613 0.2394,-2.7363 1.02417,-4.72785 2.3538,-5.97385 1.33058,-1.25673 2.98636,-1.79723 4.96563,-1.62409 z m 44.01761,4.17797 2.15776,0.18878 c 1.95765,0.17126 3.26454,0.36174 3.92184,0.57178 0.88063,0.27326 1.5895,0.71071 2.12531,1.31338 0.53578,0.6027 0.92206,1.40992 1.16044,2.42249 0.23832,1.01262 0.27775,2.43809 0.11699,4.27672 -0.16086,1.83866 -0.45113,3.27996 -0.86926,4.32231 -0.4172,1.03151 -0.90477,1.75704 -1.46459,2.17666 -0.54903,0.42064 -1.22161,0.694 -2.01739,0.82049 -0.60808,0.0995 -1.58287,0.0901 -2.92397,-0.0271 l -3.58518,-0.31366 z" fill="#FFFFFF" />
        <path d="m 92.505363,321.14562 v 36.0252 h 7.273173 v -13.58949 h 4.743094 c 3.29279,0 5.80792,-0.17184 7.54441,-0.51597 1.27783,-0.27848 2.53107,-0.84373 3.75975,-1.69554 1.24503,-0.8683 2.26842,-2.05648 3.07115,-3.5636 0.80273,-1.50713 1.20453,-3.36605 1.20453,-5.57768 0,-2.86685 -0.69672,-5.20126 -2.08918,-7.0033 -1.39249,-1.81838 -3.12126,-2.99793 -5.1854,-3.53849 -1.34335,-0.36041 -4.22562,-0.54113 -8.64881,-0.54113 z m 7.273173,6.09508 h 3.514954 c 2.62112,0 4.36579,0.0808 5.23405,0.24484 1.17952,0.21284 2.15375,0.74639 2.92372,1.59821 0.76995,0.8519 1.15446,1.93309 1.15446,3.24365 0,1.06486 -0.27762,1.99864 -0.83449,2.80138 -0.54061,0.80269 -1.29517,1.39242 -2.26172,1.76926 -0.96655,0.37677 -2.88329,0.56465 -5.75016,0.56465 h -3.980814 z m 61.306574,3.98971 c -2.13774,0 -4.02554,0.34532 -5.66165,1.03798 -1.23011,0.51353 -2.36391,1.30205 -3.4029,2.36493 -1.02706,1.06287 -1.84007,2.26286 -2.43719,3.60042 -0.80014,1.81535 -1.20015,4.06134 -1.20015,6.73649 0,4.17989 1.15253,7.46341 3.45746,9.85188 2.30488,2.37656 5.40996,3.56506 9.3152,3.56506 3.85743,0 6.9395,-1.19422 9.24441,-3.58274 2.30487,-2.40046 3.45741,-5.71985 3.45741,-9.95949 0,-4.27544 -1.16549,-7.6136 -3.49427,-10.01406 -2.31687,-2.40047 -5.40894,-3.60047 -9.27832,-3.60047 z m 50.284,0 c -2.13768,0 -4.02552,0.34532 -5.66166,1.03798 -1.23008,0.51353 -2.36386,1.30205 -3.40289,2.36493 -1.02706,1.06287 -1.83999,2.26286 -2.43712,3.60042 -0.80018,1.81535 -1.20018,4.06134 -1.20018,6.73649 0,4.17989 1.15253,7.46341 3.45746,9.85188 2.30491,2.37656 5.40994,3.56506 9.31514,3.56506 3.85748,0 6.93951,-1.19422 9.24447,-3.58274 2.30489,-2.40046 3.45743,-5.71985 3.45743,-9.95949 0,-4.27544 -1.16546,-7.6136 -3.49429,-10.01406 -2.31689,-2.40047 -5.40898,-3.60047 -9.27836,-3.60047 z m -88.38664,0.44679 v 26.26174 h 5.30187 v -11.48255 h 10.39003 v 11.48255 h 5.30193 V 331.6772 h -5.30193 v 10.33693 H 128.28434 V 331.6772 Z m 53.13109,0 v 4.44378 h 7.79359 v 21.81796 h 5.30191 v -21.81796 h 7.77447 v -4.44378 z m -14.97538,4.08546 c 2.18544,0 3.9351,0.73957 5.24883,2.22046 1.32564,1.48089 1.98892,3.72693 1.98892,6.73651 0,3.04532 -0.68057,5.33166 -2.04202,6.86031 -1.34951,1.5167 -3.08191,2.27496 -5.19573,2.27496 -2.11385,0 -3.85775,-0.76401 -5.23114,-2.29261 -1.37339,-1.54066 -2.05972,-3.79823 -2.05972,-6.77189 0,-3.02147 0.66905,-5.27762 2.00663,-6.77039 1.33757,-1.50479 3.09873,-2.25735 5.28423,-2.25735 z m 50.28402,0 c 2.18547,0 3.93517,0.73957 5.24881,2.22046 1.32565,1.48089 1.98896,3.72693 1.98896,6.73651 0,3.04532 -0.68057,5.33166 -2.04203,6.86031 -1.3495,1.5167 -3.08192,2.27496 -5.19574,2.27496 -2.11381,0 -3.85776,-0.76401 -5.23112,-2.29261 -1.37341,-1.54066 -2.05974,-3.79823 -2.05974,-6.77189 0,-3.02147 0.66909,-5.27762 2.00667,-6.77039 1.33754,-1.50479 3.09865,-2.25735 5.28419,-2.25735 z" fill="#FFFFFF" />
    </g>
</svg>