<svg width="192" height="192" viewBox="0 0 192 192" xml:space="preserve" xmlns:xlink="http://www.w3.org/1999/xlink" xmlns="http://www.w3.org/2000/svg">
    <linearGradient id="linearGradient1032">
        <stop style="stop-color:#5f5f63;stop-opacity:1;" offset="0" id="stop1028" />
        <stop style="stop-color:#abacb0;stop-opacity:1;" offset="0.51472127" id="stop1036" />
        <stop style="stop-color:#eaedee;stop-opacity:1;" offset="1" id="stop1030" />
    </linearGradient>
    <linearGradient xlink:href="#linearGradient1032" id="linearGradient1034" x1="157.64833" y1="448.14401" x2="157.17197" y2="232.00414" gradientUnits="userSpaceOnUse" gradientTransform="matrix(0.83418504,0,0,0.84159361,-30.364536,-194.24726)" />
    <filter style="color-interpolation-filters:sRGB" id="filter1061" x="-0.024355602" y="-0.14893223" width="1.0487112" height="1.2978645">
    <feGaussianBlur stdDeviation="2.2272517" id="feGaussianBlur1063" />
</filter>
    <rect x="132.86052" y="1508.2476" width="172.15729" height="87.949921" id="rect1129-3" />
    <rect x="132.86052" y="1508.2476" width="299.40396" height="86.078651" id="rect1129-2" />
    <rect x="132.86052" y="1508.2476" width="230.16679" height="86.078651" id="rect1129-5" />
    <path d="M 62.976917,453.56536 C 56.045066,453.54746 43.814629,443.12225 42.872374,435.0949 l -1.126731,-12.27696 21.170058,23.55899 166.992869,0.88145 31.31037,-29.54782 -1.95347,14.17102 c -1.70412,11.25711 -14.27356,19.88826 -29.0429,21.7205 z" transform="matrix(0.83418508,0,0,0.84159358,-30.364536,-194.24726)" fill="#1D1E1F" filter="url(#filter1061)" />
    <path d="m 30.750183,183.91381 129.670377,-0.0377 c 20.79059,-0.009 27.36142,-15.82413 27.4693,-37.00109 L 187.84,31.590158 C 187.92628,17.658797 174.25357,0.50388732 158.91284,0 L 32.35474,0.11566863 C 17.256941,0.10809425 4.7053378,16.653287 4.6769248,29.572395 L 4.4991607,156.54943 C 4.3515734,177.10914 14.263782,183.895 30.750209,183.91381 Z" fill="url(#linearGradient1034)" />
    <path d="M 58.952569,151.51754 C 23.832253,149.36945 9.5249149,123.50307 9.1984939,96.091747 9.3374639,81.742804 17.923944,64.97651 30.286564,55.298718 43.787442,45.32876 59.653559,42.720831 74.486946,45.007971 90.474963,32.788519 103.24522,26.900268 123.4589,26.855899 c 11.40949,-0.126533 30.89375,7.060021 41.2393,17.44818 14.65147,13.952551 18.39044,28.619348 18.40134,51.949997 -0.0292,25.929404 -21.61138,52.014304 -55.99808,57.126054 -9.40338,1.39601 -23.97252,0.35149 -39.372026,-3.29642 -9.209604,2.61073 -19.213208,1.80335 -28.776865,1.43383 z m 96.672081,-21.95277 c 11.59345,-10.7836 16.82981,-22.1503 16.61558,-40.001456 C 171.69668,67.330625 162.91686,56.742151 152.77617,48.23118 131.67545,32.746355 105.92338,32.985378 86.588787,48.985668 l 11.381289,7.127102 c 16.604714,-10.169009 37.774784,-7.325086 50.524224,5.656885 7.3728,8.116461 10.6541,15.625733 11.13886,27.793728 -0.10487,11.853527 -4.67737,21.157037 -11.64119,28.262157 -14.77561,14.43935 -36.81417,13.57901 -48.514544,6.11166 C 84.605302,111.81505 82.092737,107.77114 65.955784,92.198043 58.698517,84.8463 49.611075,92.79886 56.899782,100.43581 c 0,0 16.439493,19.04837 30.125991,30.43123 24.071967,17.9743 47.682067,17.511 68.598877,-1.30227 z m -76.499684,9.27491 -8.757084,-9.37424 C 64.064563,130.6519 56.753873,128.54432 50.836933,125.99547 33.538324,117.35199 28.227966,96.501132 38.957586,81.014053 48.006494,70.835175 57.635064,67.876314 66.855438,68.760114 c 12.236942,2.481027 38.945852,27.396462 38.945852,27.396462 9.14434,8.022214 16.75272,-0.505653 8.68837,-8.684394 0,0 -26.850027,-27.817379 -42.3316,-31.08334 C 62.962838,54.52773 53.233229,55.75213 44.977583,59.809288 27.809562,69.1542 21.053625,84.263691 20.721301,98.710446 c 0.220783,16.937104 4.925833,26.253614 15.514136,33.266444 15.865718,10.36493 31.37492,11.86282 42.889529,6.86279 z" fill="#000000" />
    <path d="m 26.949406,15.893924 2.852284,32.891301 6.583334,-0.581086 -1.190691,-13.730505 1.334274,-0.11779 c 1.512186,-0.133444 2.627216,-0.104214 3.346058,0.08856 0.717555,0.177838 1.416419,0.576214 2.097449,1.194329 0.679732,0.603137 1.976846,2.108377 3.888725,4.516878 l 5.37871,6.737351 7.872241,-0.694854 -4.536618,-6.065649 c -1.793288,-2.418954 -3.20085,-4.088657 -4.221747,-5.008316 -1.006075,-0.921006 -2.256602,-1.737529 -3.752466,-2.449518 2.824971,-0.671347 4.886646,-1.870661 6.185917,-3.597922 1.29798,-1.742284 1.8404,-3.847488 1.626381,-6.315343 -0.168605,-1.94441 -0.793268,-3.63002 -1.873096,-5.056926 -1.079821,-1.426948 -2.438141,-2.361612 -4.075032,-2.804897 -1.623365,-0.459545 -4.176623,-0.536086 -7.660573,-0.228568 z m 7.065913,4.983798 5.13697,-0.453424 c 2.668556,-0.235538 4.272912,-0.339802 4.813095,-0.312216 1.083053,0.0845 1.943448,0.446885 2.581301,1.083861 0.65138,0.620701 1.025467,1.483991 1.12145,2.59083 0.08561,0.987148 -0.0655,1.82891 -0.453163,2.526331 -0.387698,0.697308 -0.96355,1.216338 -1.725949,1.554893 -0.762389,0.338585 -2.722041,0.647186 -5.87983,0.925888 l -4.870119,0.42987 z m 33.994379,1.940977 -6.459871,22.315156 4.580585,-0.404285 1.341546,-5.057203 8.550064,-0.75468 2.291681,4.736512 4.697989,-0.41468 -10.436098,-20.823834 z m 15.450944,-1.363803 1.871367,21.579804 4.319061,-0.381212 -0.795195,-9.169854 8.929,-0.788127 -0.316573,-3.650673 -8.929018,0.788152 -0.443008,-5.108634 10.34467,-0.913086 -0.31658,-3.650665 z m 17.391018,-1.535007 0.31657,3.650639 1.12232,3.94991 3.0208,-0.266631 0.32262,-4.077453 -0.31656,-3.650673 z m -30.173128,7.73629 3.641868,7.74798 -5.836126,0.515122 z m 44.213188,-3.33824 c -2.22744,0.19658 -3.83125,0.803081 -4.81152,1.819113 -0.98019,1.016048 -1.41183,2.199933 -1.29439,3.554133 0.13019,1.501471 0.845,2.620733 2.1438,3.356512 0.9379,0.530271 3.09237,1.017377 6.46328,1.461418 0.72449,0.104097 1.19765,0.245887 1.41894,0.42413 0.21226,0.188837 0.33259,0.439632 0.35982,0.753613 0.04,0.461218 -0.10869,0.844975 -0.44469,1.151569 -0.50094,0.43975 -1.281,0.707141 -2.34123,0.800727 -0.96298,0.08501 -1.72986,-0.0558 -2.30061,-0.420856 -0.57158,-0.374795 -0.98069,-0.955478 -1.22554,-1.744716 l -4.05873,0.995737 c 0.50785,1.448325 1.41158,2.549574 2.71207,3.305016 1.31023,0.754504 3.02111,1.038188 5.13186,0.851877 2.32471,-0.205206 4.03503,-0.87504 5.13237,-2.010154 1.09733,-1.135177 1.58382,-2.418169 1.4596,-3.850897 -0.11395,-1.314964 -0.63063,-2.303524 -1.55043,-2.96399 -0.92868,-0.649745 -2.50951,-1.128392 -4.74149,-1.435725 -2.2222,-0.308203 -3.5301,-0.583493 -3.92354,-0.825638 -0.29022,-0.181969 -0.44779,-0.419375 -0.47333,-0.713738 -0.0299,-0.343516 0.1016,-0.637819 0.39415,-0.881215 0.44053,-0.345416 1.20107,-0.565812 2.28075,-0.661082 0.85597,-0.07558 1.5263,0.02845 2.01155,0.312112 0.49496,0.282609 0.8518,0.721069 1.06994,1.314856 l 3.80419,-1.062823 c -0.50737,-1.329676 -1.30745,-2.296878 -2.39886,-2.902573 -1.09151,-0.605745 -2.69753,-0.814553 -4.81796,-0.627391 z" fill="#FFFFFF" />
    <path d="m 85.609336,138.02067 c -3.811869,-0.33647 -6.996818,0.65913 -9.555689,2.98723 -2.557831,2.3157 -4.034897,5.75887 -4.431184,10.32876 -0.374632,4.32018 0.492762,7.83149 2.60289,10.53409 2.111257,2.69004 4.973871,4.19381 8.58766,4.51279 2.920757,0.25781 5.391414,-0.25346 7.41055,-1.53469 2.032618,-1.29264 3.586512,-3.40133 4.663186,-6.32586 l -5.179697,-2.17493 c -0.632253,1.96982 -1.514672,3.37734 -2.64781,4.22091 -1.133191,0.84361 -2.430659,1.20092 -3.891081,1.07198 -1.980182,-0.17478 -3.524782,-1.0538 -4.634616,-2.63641 -1.109833,-1.58259 -1.514646,-4.10949 -1.213648,-7.58059 0.28369,-3.27132 1.114663,-5.58251 2.491327,-6.93308 1.389067,-1.34942 3.091474,-1.9352 5.108784,-1.75716 1.460381,0.12891 2.663017,0.65031 3.606381,1.56392 0.955743,0.91476 1.532037,2.09796 1.730408,3.54977 l 5.553646,-0.83011 c -0.428213,-2.25215 -1.210294,-4.01965 -2.346112,-5.30261 -1.90699,-2.16879 -4.525836,-3.40018 -7.854995,-3.69401 z m 38.411024,10.52184 c -1.61497,-0.14255 -3.0628,-0.005 -4.34465,0.41356 -0.96326,0.30942 -1.87303,0.83466 -2.72821,1.5755 -0.84613,0.74162 -1.53851,1.6021 -2.07805,2.58176 -0.72444,1.33018 -1.1751,3.01544 -1.35191,5.05431 -0.27625,3.18584 0.37735,5.76527 1.96085,7.73941 1.58417,1.96505 3.8514,3.07794 6.80164,3.33836 2.91415,0.25719 5.32037,-0.44749 7.21953,-2.1144 1.89992,-1.67582 2.99001,-4.12902 3.27021,-7.36027 0.28259,-3.25862 -0.37616,-5.88052 -1.97681,-7.86537 -1.59167,-1.98405 -3.8494,-3.10495 -6.7726,-3.36294 z m 12.71846,1.46573 -0.92596,10.67775 c -0.19419,2.23918 -0.2095,3.94285 -0.0472,5.11287 0.11336,0.78962 0.4229,1.5651 0.92973,2.32528 0.50764,0.75102 1.22968,1.39267 2.16537,1.92469 0.94557,0.52377 2.36582,0.86901 4.26049,1.03624 1.56985,0.13853 2.85903,0.0501 3.8682,-0.26437 1.00986,-0.32364 1.8334,-0.80121 2.46998,-1.43297 0.64567,-0.63089 1.11933,-1.43223 1.42188,-2.40525 0.30257,-0.97308 0.55851,-2.66108 0.76688,-5.06412 l 0.91173,-10.51368 -4.0065,-0.35364 -0.96025,11.07333 c -0.13736,1.58378 -0.29433,2.71149 -0.47077,3.38379 -0.17649,0.6723 -0.57334,1.21968 -1.19184,1.642 -0.61765,0.41325 -1.49551,0.57007 -2.6323,0.46971 -1.11873,-0.0987 -1.98115,-0.42239 -2.58814,-0.97122 -0.59714,-0.55723 -0.94646,-1.25329 -1.04682,-2.0876 -0.0551,-0.51851 -0.008,-1.63816 0.14194,-3.35847 l 0.94008,-10.8407 z m 20.02925,1.76789 -1.73579,20.01603 7.53852,0.66539 c 1.47967,0.13062 2.67339,0.0945 3.58203,-0.10963 1.21508,-0.27797 2.19937,-0.7282 2.95327,-1.34949 0.9984,-0.81992 1.80939,-1.93629 2.4319,-3.34887 0.5094,-1.15655 0.83584,-2.5588 0.97869,-4.20631 0.16261,-1.87505 0.0828,-3.46899 -0.23966,-4.78148 -0.3218,-1.32165 -0.85949,-2.45976 -1.61299,-3.41603 -0.75344,-0.95616 -1.69807,-1.65836 -2.83192,-2.10699 -0.84407,-0.33129 -2.09059,-0.57061 -3.74162,-0.71633 z m -58.396614,-4.98909 -1.721538,19.852 13.966582,1.23278 0.29241,-3.37234 -9.96,-0.87916 1.42908,-16.47961 z m 25.390554,5.21351 c 1.65108,0.14575 2.92287,0.82598 3.81744,2.04223 0.90359,1.21709 1.25626,2.97325 1.05733,5.267 -0.20127,2.32111 -0.86656,4.01831 -1.99612,5.09261 -1.1197,1.06601 -2.4775,1.52858 -4.07445,1.38762 -1.59692,-0.14094 -2.86386,-0.8396 -3.80038,-2.09629 -0.93575,-1.26575 -1.30613,-3.03228 -1.10957,-5.29879 0.19971,-2.30285 0.85434,-3.97894 1.96352,-5.02756 1.10992,-1.05766 2.49116,-1.51252 4.14223,-1.36682 z m 36.71885,3.51616 1.79995,0.15885 c 1.63307,0.14412 2.72324,0.30445 3.27157,0.48121 0.73458,0.22999 1.32591,0.59813 1.77289,1.10533 0.44694,0.50723 0.76915,1.18657 0.96803,2.03875 0.1988,0.85222 0.23169,2.0519 0.0976,3.59927 -0.13419,1.5474 -0.37633,2.76039 -0.72511,3.63764 -0.34804,0.8681 -0.75476,1.47869 -1.22174,1.83184 -0.45801,0.35402 -1.01906,0.58407 -1.68288,0.69053 -0.50725,0.0837 -1.32041,0.0758 -2.43914,-0.0227 l -2.9907,-0.26398 z" fill="#FFFFFF" />
    <path d="m 46.802057,76.026844 v 30.318566 h 6.067171 V 94.908595 h 3.956618 c 2.746796,0 4.844881,-0.144625 6.293434,-0.434236 1.065949,-0.234364 2.111382,-0.710078 3.136328,-1.426956 1.038585,-0.730754 1.892281,-1.730719 2.561907,-2.999101 0.669626,-1.268394 1.004801,-2.832848 1.004801,-4.69414 0,-2.412725 -0.581193,-4.377352 -1.742762,-5.893936 -1.161595,-1.530336 -2.603708,-2.523036 -4.325583,-2.97797 -1.120604,-0.303331 -3.524951,-0.455412 -7.214709,-0.455412 z m 6.067171,5.129581 h 2.932122 c 2.186499,0 3.641878,0.068 4.366167,0.206052 0.983939,0.179131 1.796627,0.628157 2.438923,1.345044 0.642281,0.716956 0.963034,1.626879 0.963034,2.729836 0,0.89618 -0.231586,1.682043 -0.69612,2.357622 -0.450968,0.67554 -1.08041,1.171852 -1.886694,1.489 -0.80628,0.3171 -2.405196,0.475205 -4.796696,0.475205 h -3.320736 z m 51.141052,3.357715 c -1.78329,0 -3.35807,0.290598 -4.722894,0.87356 -1.02613,0.432182 -1.971932,1.095794 -2.838642,1.990307 -0.856759,0.894505 -1.534959,1.904409 -2.033068,3.030093 -0.667464,1.527785 -1.001146,3.417993 -1.001146,5.669386 0,3.517764 0.961424,6.281154 2.884163,8.291274 1.922703,2.0001 4.512917,3.00034 7.770597,3.00034 3.21782,0 5.78884,-1.00506 7.71154,-3.01522 1.92269,-2.02021 2.88413,-4.813785 2.88413,-8.381836 0,-3.598184 -0.97224,-6.40756 -2.91487,-8.427771 -1.93269,-2.020222 -4.51206,-3.030133 -7.73981,-3.030133 z m 41.94614,0 c -1.78322,0 -3.35803,0.290598 -4.72286,0.87356 -1.02611,0.432182 -1.97192,1.095794 -2.83864,1.990307 -0.85677,0.894505 -1.53489,1.904409 -2.03301,3.030093 -0.66751,1.527785 -1.00119,3.417993 -1.00119,5.669386 0,3.517764 0.96144,6.281154 2.88417,8.291274 1.92273,2.0001 4.51289,3.00034 7.77056,3.00034 3.21784,0 5.78882,-1.00506 7.71159,-3.01522 1.92272,-2.02021 2.88414,-4.813785 2.88414,-8.381836 0,-3.598184 -0.97221,-6.40756 -2.91489,-8.427771 -1.93272,-2.020222 -4.5121,-3.030133 -7.73987,-3.030133 z m -73.730816,0.376028 v 22.101702 h 4.422741 v -9.663631 h 8.667207 v 9.663631 h 4.422791 V 84.890168 h -4.422791 v 8.699493 h -8.667207 v -8.699493 z m 44.321176,0 v 3.739858 h 6.5013 v 18.361844 h 4.42276 V 88.630026 h 6.48535 v -3.739858 z m -12.49225,3.438299 c 1.82308,0 3.28261,0.622416 4.3785,1.868724 1.10583,1.246307 1.65913,3.136558 1.65913,5.669401 0,2.562924 -0.56773,4.487088 -1.70343,5.773588 -1.12574,1.27645 -2.57086,1.91458 -4.3342,1.91458 -1.76334,0 -3.21808,-0.64297 -4.363744,-1.92943 -1.14567,-1.29661 -1.71819,-3.196564 -1.71819,-5.699179 0,-2.54285 0.55811,-4.441609 1.67391,-5.697917 1.115804,-1.266418 2.584914,-1.899767 4.408024,-1.899767 z m 41.94616,0 c 1.8231,0 3.28266,0.622416 4.37852,1.868724 1.10581,1.246307 1.65914,3.136558 1.65914,5.669401 0,2.562924 -0.56771,4.487088 -1.70343,5.773588 -1.12574,1.27645 -2.57091,1.91458 -4.33423,1.91458 -1.7633,0 -3.21807,-0.64297 -4.36371,-1.92943 -1.14568,-1.29661 -1.71819,-3.196564 -1.71819,-5.699179 0,-2.54285 0.55813,-4.441609 1.67392,-5.697917 1.11575,-1.266418 2.58485,-1.899767 4.40798,-1.899767 z" fill="#FFFFFF" />
</svg>